<?xml version="1.0" encoding="UTF-8"?>
<svg xmlns="http://www.w3.org/2000/svg" xmlns:xlink="http://www.w3.org/1999/xlink" width="609pt" height="62pt" viewBox="0 0 609 62" version="1.1">
<g id="surface1">
<path style="fill:none;stroke-width:1;stroke-linecap:butt;stroke-linejoin:miter;stroke:rgb(97.254902%,98.039216%,98.823529%);stroke-opacity:1;stroke-miterlimit:4;" d="M 390.5 60.800781 L 408.699219 1 "/>
<path style="fill:none;stroke-width:1;stroke-linecap:butt;stroke-linejoin:miter;stroke:rgb(97.254902%,98.039216%,98.823529%);stroke-opacity:1;stroke-miterlimit:4;" d="M 466.699219 60.800781 L 485 1 "/>
<path style="fill:none;stroke-width:1;stroke-linecap:butt;stroke-linejoin:miter;stroke:rgb(97.254902%,98.039216%,98.823529%);stroke-opacity:1;stroke-miterlimit:4;" d="M 544.800781 60.800781 L 563 1 "/>
<path style=" stroke:none;fill-rule:nonzero;fill:rgb(97.254902%,98.039216%,98.823529%);fill-opacity:1;" d="M 364.601562 50.699219 L 357.300781 50.699219 L 357.300781 16.800781 L 345.5 16.800781 L 345.5 10 L 376.5 10 L 376.5 16.800781 L 364.699219 16.800781 Z M 364.601562 50.699219 "/>
<path style=" stroke:none;fill-rule:nonzero;fill:rgb(97.254902%,98.039216%,98.823529%);fill-opacity:1;" d="M 429.300781 50.699219 L 422 50.699219 L 422 10 L 438.800781 10 C 445.800781 10 452.601562 12.300781 452.601562 22.398438 C 452.601562 29.601562 449.101562 32.800781 444.601562 34 L 454.5 50.800781 L 445.898438 50.800781 L 436.800781 34.800781 L 429.300781 34.800781 Z M 439.300781 27.898438 C 441.898438 27.898438 445.199219 27.398438 445.199219 22.398438 C 445.199219 17.300781 441.898438 16.800781 439.300781 16.800781 L 429.300781 16.800781 L 429.300781 27.898438 Z M 439.300781 27.898438 "/>
<path style=" stroke:none;fill-rule:nonzero;fill:rgb(97.254902%,98.039216%,98.823529%);fill-opacity:1;" d="M 529.300781 10 L 529.300781 16.800781 L 507.699219 16.800781 L 507.699219 26.5 L 526.800781 26.5 L 526.800781 33.300781 L 507.699219 33.300781 L 507.699219 43.898438 L 530.199219 43.898438 L 530.199219 50.699219 L 500.398438 50.699219 L 500.398438 10 Z M 529.300781 10 "/>
<path style=" stroke:none;fill-rule:nonzero;fill:rgb(97.254902%,98.039216%,98.823529%);fill-opacity:1;" d="M 607.199219 10 L 607.199219 16.800781 L 585.601562 16.800781 L 585.601562 26.5 L 604.699219 26.5 L 604.699219 33.300781 L 585.601562 33.300781 L 585.601562 43.898438 L 608.101562 43.898438 L 608.101562 50.699219 L 578.300781 50.699219 L 578.300781 10 Z M 607.199219 10 "/>
<path style=" stroke:none;fill-rule:nonzero;fill:rgb(97.254902%,98.039216%,98.823529%);fill-opacity:1;" d="M 174.5 0 L 155.5 62 L 233.699219 62 L 252.601562 0 Z M 215 50.699219 L 211.5 41 L 196.398438 41 L 192.898438 50.699219 L 185 50.699219 L 200.699219 9.300781 L 207.199219 9.300781 L 222.898438 50.699219 Z M 198.699219 34.300781 L 209.199219 34.300781 L 203.898438 18.601562 Z M 95.300781 0 L 76.300781 62 L 153.300781 62 L 172.199219 0 Z M 129.699219 35.398438 L 121.5 35.398438 L 121.5 50.699219 L 114.199219 50.699219 L 114.199219 10 L 129.601562 10 C 136.398438 10 143.5 12.5 143.5 22.699219 C 143.601562 32.898438 136.5 35.398438 129.699219 35.398438 Z M 19.300781 0 L 0.300781 62 L 74.101562 62 L 93 0 Z M 49.601562 51.398438 C 38.601562 51.398438 34 47 33.199219 38.898438 L 40.601562 38.101562 C 41.199219 42.898438 44.101562 44.601562 49.601562 44.601562 C 53.699219 44.5 58.300781 43 58.300781 38.5 C 58.300781 34.898438 56.199219 33.398438 49.398438 32.800781 C 41.898438 32.199219 34.601562 30.199219 34.601562 21.5 C 34.5 12.898438 41.398438 9.101562 49.300781 9.101562 C 59.898438 9.101562 64.800781 13.800781 65.5 21.5 L 58.101562 22.300781 C 57.5 17.5 54.800781 15.898438 49.300781 15.898438 C 46.5 16 41.898438 16.898438 41.898438 21.5 C 42 24.300781 43.5 25.5 49.800781 26.101562 C 59.800781 27 65.5 28.800781 65.601562 38.398438 C 65.601562 47.699219 57.699219 51.398438 49.601562 51.398438 Z M 130.199219 16.800781 L 121.5 16.800781 L 121.5 28.601562 L 130.199219 28.601562 C 132.699219 28.601562 136 27.898438 136 22.699219 C 136.101562 17.5 132.699219 16.800781 130.199219 16.800781 Z M 254.898438 0 L 235.898438 62 L 312.5 62 L 331.800781 0 Z M 299.199219 50.699219 L 292.5 50.699219 L 278.5 29.699219 L 274.5 23.398438 L 274.601562 33.199219 L 274.601562 50.699219 L 267.300781 50.699219 L 267.300781 10 L 274 10 L 288 31 L 292 37.300781 L 291.898438 27.5 L 291.898438 10 L 299.199219 10 Z M 299.199219 50.699219 "/>
</g>
</svg>
