<?xml version="1.0" encoding="UTF-8"?>
<svg width="609px" height="62px" viewBox="0 0 609 62" version="1.1" xmlns="http://www.w3.org/2000/svg" xmlns:xlink="http://www.w3.org/1999/xlink">
    <g id="Page-1" stroke="none" stroke-width="1" fill="none" fill-rule="evenodd">
        <line x1="390.5" y1="60.8" x2="408.7" y2="1" id="Path" stroke="#f8fafc" strokeWidth="0.9" strokeLinejoin="round"></line>
        <line x1="466.7" y1="60.8" x2="485" y2="1" id="Path" stroke="#f8fafc" strokeWidth="0.9" strokeLinejoin="round"></line>
        <line x1="544.8" y1="60.8" x2="563" y2="1" id="Path" stroke="#f8fafc" strokeWidth="0.9" strokeLinejoin="round"></line>
        <polygon id="Path" fill="#f8fafc" fill-rule="nonzero" points="364.6 50.7 357.3 50.7 357.3 16.8 345.5 16.8 345.5 10 376.5 10 376.5 16.8 364.7 16.8"></polygon>
        <path d="M429.3,50.7 L422,50.7 L422,10 L438.8,10 C445.8,10 452.6,12.3 452.6,22.4 C452.6,29.6 449.1,32.8 444.6,34 L454.5,50.8 L445.9,50.8 L436.8,34.8 L429.3,34.8 L429.3,50.7 L429.3,50.7 Z M439.3,27.9 C441.9,27.9 445.2,27.4 445.2,22.4 C445.2,17.3 441.9,16.8 439.3,16.8 L429.3,16.8 L429.3,27.9 L439.3,27.9 Z" id="Shape" fill="#f8fafc" fill-rule="nonzero"></path>
        <polygon id="Path" fill="#f8fafc" fill-rule="nonzero" points="529.3 10 529.3 16.8 507.7 16.8 507.7 26.5 526.8 26.5 526.8 33.3 507.7 33.3 507.7 43.9 530.2 43.9 530.2 50.7 500.4 50.7 500.4 10"></polygon>
        <polygon id="Path" fill="#f8fafc" fill-rule="nonzero" points="607.2 10 607.2 16.8 585.6 16.8 585.6 26.5 604.7 26.5 604.7 33.3 585.6 33.3 585.6 43.9 608.1 43.9 608.1 50.7 578.3 50.7 578.3 10"></polygon>
        <path d="M174.5,0 L155.5,62 L233.7,62 L252.6,0 L174.5,0 Z M215,50.7 L211.5,41 L196.4,41 L192.9,50.7 L185,50.7 L200.7,9.3 L207.2,9.3 L222.9,50.7 L215,50.7 Z M198.7,34.3 L209.2,34.3 L203.9,18.6 L198.7,34.3 Z M95.3,0 L76.3,62 L153.3,62 L172.2,0 L95.3,0 Z M129.7,35.4 L121.5,35.4 L121.5,50.7 L114.2,50.7 L114.2,10 L129.6,10 C136.4,10 143.5,12.5 143.5,22.7 C143.6,32.9 136.5,35.4 129.7,35.4 Z M19.3,0 L0.3,62 L74.1,62 L93,0 L19.3,0 Z M49.6,51.4 C38.6,51.4 34,47 33.2,38.9 L40.6,38.1 C41.2,42.9 44.1,44.6 49.6,44.6 C53.7,44.5 58.3,43 58.3,38.5 C58.3,34.9 56.2,33.4 49.4,32.8 C41.9,32.2 34.6,30.2 34.6,21.5 C34.5,12.9 41.4,9.1 49.3,9.1 C59.9,9.1 64.8,13.8 65.5,21.5 L58.1,22.3 C57.5,17.5 54.8,15.9 49.3,15.9 C46.5,16 41.9,16.9 41.9,21.5 C42,24.3 43.5,25.5 49.8,26.1 C59.8,27 65.5,28.8 65.6,38.4 C65.6,47.7 57.7,51.4 49.6,51.4 Z M130.2,16.8 L121.5,16.8 L121.5,28.6 L130.2,28.6 C132.7,28.6 136,27.9 136,22.7 C136.1,17.5 132.7,16.8 130.2,16.8 Z M254.9,0 L235.9,62 L312.5,62 L331.8,0 L254.9,0 Z M299.2,50.7 L292.5,50.7 L278.5,29.7 L274.5,23.4 L274.6,33.2 L274.6,50.7 L267.3,50.7 L267.3,10 L274,10 L288,31 L292,37.3 L291.9,27.5 L291.9,10 L299.2,10 L299.2,50.7 L299.2,50.7 Z" id="Shape" fill="#f8fafc" fill-rule="nonzero"></path>
    </g>
</svg>